<mxfile host="Electron" modified="2024-06-16T19:31:55.446Z" agent="Mozilla/5.0 (X11; Linux x86_64) AppleWebKit/537.36 (KHTML, like Gecko) draw.io/22.0.2 Chrome/114.0.5735.289 Electron/25.8.4 Safari/537.36" etag="FAtK1TabRBN_7psGPJqF" version="22.0.2" type="device">
  <diagram id="C5RBs43oDa-KdzZeNtuy" name="Page-1">
    <mxGraphModel dx="1434" dy="883" grid="1" gridSize="10" guides="1" tooltips="1" connect="1" arrows="1" fold="1" page="1" pageScale="1" pageWidth="827" pageHeight="1169" math="0" shadow="0">
      <root>
        <mxCell id="WIyWlLk6GJQsqaUBKTNV-0" />
        <mxCell id="WIyWlLk6GJQsqaUBKTNV-1" parent="WIyWlLk6GJQsqaUBKTNV-0" />
        <mxCell id="fjV98Jkm7xAT9p4d5GUs-6" value="Clasificador" style="swimlane;fontStyle=1;align=center;verticalAlign=top;childLayout=stackLayout;horizontal=1;startSize=26;horizontalStack=0;resizeParent=1;resizeParentMax=0;resizeLast=0;collapsible=1;marginBottom=0;whiteSpace=wrap;html=1;" parent="WIyWlLk6GJQsqaUBKTNV-1" vertex="1">
          <mxGeometry x="40" y="370" width="240" height="190" as="geometry" />
        </mxCell>
        <mxCell id="fjV98Jkm7xAT9p4d5GUs-7" value="&lt;u&gt;+ id: string&lt;/u&gt;" style="text;strokeColor=none;fillColor=none;align=left;verticalAlign=top;spacingLeft=4;spacingRight=4;overflow=hidden;rotatable=0;points=[[0,0.5],[1,0.5]];portConstraint=eastwest;whiteSpace=wrap;html=1;" parent="fjV98Jkm7xAT9p4d5GUs-6" vertex="1">
          <mxGeometry y="26" width="240" height="26" as="geometry" />
        </mxCell>
        <mxCell id="fjV98Jkm7xAT9p4d5GUs-18" value="+ nombre: string" style="text;strokeColor=none;fillColor=none;align=left;verticalAlign=top;spacingLeft=4;spacingRight=4;overflow=hidden;rotatable=0;points=[[0,0.5],[1,0.5]];portConstraint=eastwest;whiteSpace=wrap;html=1;" parent="fjV98Jkm7xAT9p4d5GUs-6" vertex="1">
          <mxGeometry y="52" width="240" height="26" as="geometry" />
        </mxCell>
        <mxCell id="fjV98Jkm7xAT9p4d5GUs-8" value="" style="line;strokeWidth=1;fillColor=none;align=left;verticalAlign=middle;spacingTop=-1;spacingLeft=3;spacingRight=3;rotatable=0;labelPosition=right;points=[];portConstraint=eastwest;strokeColor=inherit;" parent="fjV98Jkm7xAT9p4d5GUs-6" vertex="1">
          <mxGeometry y="78" width="240" height="8" as="geometry" />
        </mxCell>
        <mxCell id="Adfxd0lngenPJyRESjp3-2" value="+ agregaUsuario(): UsuarioContenedor" style="text;strokeColor=none;fillColor=none;align=left;verticalAlign=top;spacingLeft=4;spacingRight=4;overflow=hidden;rotatable=0;points=[[0,0.5],[1,0.5]];portConstraint=eastwest;whiteSpace=wrap;html=1;" parent="fjV98Jkm7xAT9p4d5GUs-6" vertex="1">
          <mxGeometry y="86" width="240" height="26" as="geometry" />
        </mxCell>
        <mxCell id="fjV98Jkm7xAT9p4d5GUs-9" value="+ creaCaja(): Caja" style="text;strokeColor=none;fillColor=none;align=left;verticalAlign=top;spacingLeft=4;spacingRight=4;overflow=hidden;rotatable=0;points=[[0,0.5],[1,0.5]];portConstraint=eastwest;whiteSpace=wrap;html=1;" parent="fjV98Jkm7xAT9p4d5GUs-6" vertex="1">
          <mxGeometry y="112" width="240" height="26" as="geometry" />
        </mxCell>
        <mxCell id="fjV98Jkm7xAT9p4d5GUs-70" value="+ creaObjeto(): Objeto" style="text;strokeColor=none;fillColor=none;align=left;verticalAlign=top;spacingLeft=4;spacingRight=4;overflow=hidden;rotatable=0;points=[[0,0.5],[1,0.5]];portConstraint=eastwest;whiteSpace=wrap;html=1;" parent="fjV98Jkm7xAT9p4d5GUs-6" vertex="1">
          <mxGeometry y="138" width="240" height="26" as="geometry" />
        </mxCell>
        <mxCell id="fjV98Jkm7xAT9p4d5GUs-96" value="+ creaEtiqueta(): Etiqueta" style="text;strokeColor=none;fillColor=none;align=left;verticalAlign=top;spacingLeft=4;spacingRight=4;overflow=hidden;rotatable=0;points=[[0,0.5],[1,0.5]];portConstraint=eastwest;whiteSpace=wrap;html=1;" parent="fjV98Jkm7xAT9p4d5GUs-6" vertex="1">
          <mxGeometry y="164" width="240" height="26" as="geometry" />
        </mxCell>
        <mxCell id="PhYve7KCw_pkfZqsMKJ3-10" style="edgeStyle=orthogonalEdgeStyle;rounded=0;orthogonalLoop=1;jettySize=auto;html=1;endArrow=open;endFill=0;" parent="WIyWlLk6GJQsqaUBKTNV-1" source="fjV98Jkm7xAT9p4d5GUs-11" target="PhYve7KCw_pkfZqsMKJ3-0" edge="1">
          <mxGeometry relative="1" as="geometry">
            <Array as="points">
              <mxPoint x="505" y="668" />
              <mxPoint x="580" y="668" />
            </Array>
          </mxGeometry>
        </mxCell>
        <mxCell id="PhYve7KCw_pkfZqsMKJ3-11" value="1" style="edgeLabel;html=1;align=center;verticalAlign=middle;resizable=0;points=[];" parent="PhYve7KCw_pkfZqsMKJ3-10" vertex="1" connectable="0">
          <mxGeometry x="0.8746" y="1" relative="1" as="geometry">
            <mxPoint x="11" as="offset" />
          </mxGeometry>
        </mxCell>
        <mxCell id="PhYve7KCw_pkfZqsMKJ3-12" value="0..*" style="edgeLabel;html=1;align=center;verticalAlign=middle;resizable=0;points=[];" parent="PhYve7KCw_pkfZqsMKJ3-10" vertex="1" connectable="0">
          <mxGeometry x="-0.906" relative="1" as="geometry">
            <mxPoint x="15" as="offset" />
          </mxGeometry>
        </mxCell>
        <mxCell id="PhYve7KCw_pkfZqsMKJ3-14" value="clasificado-como" style="edgeLabel;html=1;align=center;verticalAlign=middle;resizable=0;points=[];" parent="PhYve7KCw_pkfZqsMKJ3-10" vertex="1" connectable="0">
          <mxGeometry x="-0.047" y="1" relative="1" as="geometry">
            <mxPoint x="-37" y="-17" as="offset" />
          </mxGeometry>
        </mxCell>
        <mxCell id="fjV98Jkm7xAT9p4d5GUs-11" value="Objeto" style="swimlane;fontStyle=1;align=center;verticalAlign=top;childLayout=stackLayout;horizontal=1;startSize=26;horizontalStack=0;resizeParent=1;resizeParentMax=0;resizeLast=0;collapsible=1;marginBottom=0;whiteSpace=wrap;html=1;" parent="WIyWlLk6GJQsqaUBKTNV-1" vertex="1">
          <mxGeometry x="380" y="728" width="250" height="242" as="geometry" />
        </mxCell>
        <mxCell id="fjV98Jkm7xAT9p4d5GUs-12" value="&lt;u&gt;+ id: string&lt;/u&gt;" style="text;strokeColor=none;fillColor=none;align=left;verticalAlign=top;spacingLeft=4;spacingRight=4;overflow=hidden;rotatable=0;points=[[0,0.5],[1,0.5]];portConstraint=eastwest;whiteSpace=wrap;html=1;" parent="fjV98Jkm7xAT9p4d5GUs-11" vertex="1">
          <mxGeometry y="26" width="250" height="26" as="geometry" />
        </mxCell>
        <mxCell id="fjV98Jkm7xAT9p4d5GUs-19" value="+ nombre: string" style="text;strokeColor=none;fillColor=none;align=left;verticalAlign=top;spacingLeft=4;spacingRight=4;overflow=hidden;rotatable=0;points=[[0,0.5],[1,0.5]];portConstraint=eastwest;whiteSpace=wrap;html=1;" parent="fjV98Jkm7xAT9p4d5GUs-11" vertex="1">
          <mxGeometry y="52" width="250" height="26" as="geometry" />
        </mxCell>
        <mxCell id="fjV98Jkm7xAT9p4d5GUs-17" value="+ descripciÃ³n?: string" style="text;strokeColor=none;fillColor=none;align=left;verticalAlign=top;spacingLeft=4;spacingRight=4;overflow=hidden;rotatable=0;points=[[0,0.5],[1,0.5]];portConstraint=eastwest;whiteSpace=wrap;html=1;" parent="fjV98Jkm7xAT9p4d5GUs-11" vertex="1">
          <mxGeometry y="78" width="250" height="26" as="geometry" />
        </mxCell>
        <mxCell id="PhYve7KCw_pkfZqsMKJ3-13" value="+ imagenes: url[]" style="text;strokeColor=none;fillColor=none;align=left;verticalAlign=top;spacingLeft=4;spacingRight=4;overflow=hidden;rotatable=0;points=[[0,0.5],[1,0.5]];portConstraint=eastwest;whiteSpace=wrap;html=1;" parent="fjV98Jkm7xAT9p4d5GUs-11" vertex="1">
          <mxGeometry y="104" width="250" height="26" as="geometry" />
        </mxCell>
        <mxCell id="PhYve7KCw_pkfZqsMKJ3-31" value="+ receptor?: string" style="text;strokeColor=none;fillColor=none;align=left;verticalAlign=top;spacingLeft=4;spacingRight=4;overflow=hidden;rotatable=0;points=[[0,0.5],[1,0.5]];portConstraint=eastwest;whiteSpace=wrap;html=1;" parent="fjV98Jkm7xAT9p4d5GUs-11" vertex="1">
          <mxGeometry y="130" width="250" height="26" as="geometry" />
        </mxCell>
        <mxCell id="fjV98Jkm7xAT9p4d5GUs-13" value="" style="line;strokeWidth=1;fillColor=none;align=left;verticalAlign=middle;spacingTop=-1;spacingLeft=3;spacingRight=3;rotatable=0;labelPosition=right;points=[];portConstraint=eastwest;strokeColor=inherit;" parent="fjV98Jkm7xAT9p4d5GUs-11" vertex="1">
          <mxGeometry y="156" width="250" height="8" as="geometry" />
        </mxCell>
        <mxCell id="PhYve7KCw_pkfZqsMKJ3-32" value="+ prestado(): boolean" style="text;strokeColor=none;fillColor=none;align=left;verticalAlign=top;spacingLeft=4;spacingRight=4;overflow=hidden;rotatable=0;points=[[0,0.5],[1,0.5]];portConstraint=eastwest;whiteSpace=wrap;html=1;" parent="fjV98Jkm7xAT9p4d5GUs-11" vertex="1">
          <mxGeometry y="164" width="250" height="26" as="geometry" />
        </mxCell>
        <mxCell id="fjV98Jkm7xAT9p4d5GUs-14" value="+ clasifica(caja): void" style="text;strokeColor=none;fillColor=none;align=left;verticalAlign=top;spacingLeft=4;spacingRight=4;overflow=hidden;rotatable=0;points=[[0,0.5],[1,0.5]];portConstraint=eastwest;whiteSpace=wrap;html=1;" parent="fjV98Jkm7xAT9p4d5GUs-11" vertex="1">
          <mxGeometry y="190" width="250" height="26" as="geometry" />
        </mxCell>
        <mxCell id="fjV98Jkm7xAT9p4d5GUs-89" value="+ agregaEtiqueta(etiqueta): etiquetaObjeto" style="text;strokeColor=none;fillColor=none;align=left;verticalAlign=top;spacingLeft=4;spacingRight=4;overflow=hidden;rotatable=0;points=[[0,0.5],[1,0.5]];portConstraint=eastwest;whiteSpace=wrap;html=1;" parent="fjV98Jkm7xAT9p4d5GUs-11" vertex="1">
          <mxGeometry y="216" width="250" height="26" as="geometry" />
        </mxCell>
        <mxCell id="PhYve7KCw_pkfZqsMKJ3-24" style="edgeStyle=orthogonalEdgeStyle;rounded=0;orthogonalLoop=1;jettySize=auto;html=1;entryX=0.3;entryY=-0.012;entryDx=0;entryDy=0;endArrow=none;endFill=0;startArrow=open;startFill=0;entryPerimeter=0;" parent="WIyWlLk6GJQsqaUBKTNV-1" source="fjV98Jkm7xAT9p4d5GUs-28" target="PhYve7KCw_pkfZqsMKJ3-15" edge="1">
          <mxGeometry relative="1" as="geometry">
            <Array as="points">
              <mxPoint x="550" y="140" />
            </Array>
          </mxGeometry>
        </mxCell>
        <mxCell id="PhYve7KCw_pkfZqsMKJ3-25" value="1" style="edgeLabel;html=1;align=center;verticalAlign=middle;resizable=0;points=[];" parent="PhYve7KCw_pkfZqsMKJ3-24" vertex="1" connectable="0">
          <mxGeometry x="-0.9533" y="-1" relative="1" as="geometry">
            <mxPoint x="7" y="-12" as="offset" />
          </mxGeometry>
        </mxCell>
        <mxCell id="PhYve7KCw_pkfZqsMKJ3-26" value="0..*" style="edgeLabel;html=1;align=center;verticalAlign=middle;resizable=0;points=[];" parent="PhYve7KCw_pkfZqsMKJ3-24" vertex="1" connectable="0">
          <mxGeometry x="0.8927" y="-3" relative="1" as="geometry">
            <mxPoint x="23" as="offset" />
          </mxGeometry>
        </mxCell>
        <mxCell id="PhYve7KCw_pkfZqsMKJ3-27" value="pertenece-a" style="edgeLabel;html=1;align=center;verticalAlign=middle;resizable=0;points=[];" parent="PhYve7KCw_pkfZqsMKJ3-24" vertex="1" connectable="0">
          <mxGeometry x="-0.0162" y="-1" relative="1" as="geometry">
            <mxPoint x="43" y="-21" as="offset" />
          </mxGeometry>
        </mxCell>
        <mxCell id="fjV98Jkm7xAT9p4d5GUs-28" value="Usuario" style="swimlane;fontStyle=1;align=center;verticalAlign=top;childLayout=stackLayout;horizontal=1;startSize=26;horizontalStack=0;resizeParent=1;resizeParentMax=0;resizeLast=0;collapsible=1;marginBottom=0;whiteSpace=wrap;html=1;" parent="WIyWlLk6GJQsqaUBKTNV-1" vertex="1">
          <mxGeometry x="60" y="73.73" width="250" height="112" as="geometry" />
        </mxCell>
        <mxCell id="fjV98Jkm7xAT9p4d5GUs-29" value="&lt;u&gt;+ id: string&lt;/u&gt;" style="text;strokeColor=none;fillColor=none;align=left;verticalAlign=top;spacingLeft=4;spacingRight=4;overflow=hidden;rotatable=0;points=[[0,0.5],[1,0.5]];portConstraint=eastwest;whiteSpace=wrap;html=1;" parent="fjV98Jkm7xAT9p4d5GUs-28" vertex="1">
          <mxGeometry y="26" width="250" height="26" as="geometry" />
        </mxCell>
        <mxCell id="fjV98Jkm7xAT9p4d5GUs-32" value="+ displayName: string" style="text;strokeColor=none;fillColor=none;align=left;verticalAlign=top;spacingLeft=4;spacingRight=4;overflow=hidden;rotatable=0;points=[[0,0.5],[1,0.5]];portConstraint=eastwest;whiteSpace=wrap;html=1;" parent="fjV98Jkm7xAT9p4d5GUs-28" vertex="1">
          <mxGeometry y="52" width="250" height="26" as="geometry" />
        </mxCell>
        <mxCell id="fjV98Jkm7xAT9p4d5GUs-30" value="" style="line;strokeWidth=1;fillColor=none;align=left;verticalAlign=middle;spacingTop=-1;spacingLeft=3;spacingRight=3;rotatable=0;labelPosition=right;points=[];portConstraint=eastwest;strokeColor=inherit;" parent="fjV98Jkm7xAT9p4d5GUs-28" vertex="1">
          <mxGeometry y="78" width="250" height="8" as="geometry" />
        </mxCell>
        <mxCell id="fjV98Jkm7xAT9p4d5GUs-31" value="+ creaContenedor(): Contenedor" style="text;strokeColor=none;fillColor=none;align=left;verticalAlign=top;spacingLeft=4;spacingRight=4;overflow=hidden;rotatable=0;points=[[0,0.5],[1,0.5]];portConstraint=eastwest;whiteSpace=wrap;html=1;" parent="fjV98Jkm7xAT9p4d5GUs-28" vertex="1">
          <mxGeometry y="86" width="250" height="26" as="geometry" />
        </mxCell>
        <mxCell id="fjV98Jkm7xAT9p4d5GUs-33" value="" style="endArrow=open;shadow=0;strokeWidth=1;rounded=0;endFill=1;edgeStyle=elbowEdgeStyle;elbow=vertical;exitX=0.131;exitY=-0.009;exitDx=0;exitDy=0;exitPerimeter=0;" parent="WIyWlLk6GJQsqaUBKTNV-1" source="fjV98Jkm7xAT9p4d5GUs-6" target="fjV98Jkm7xAT9p4d5GUs-28" edge="1">
          <mxGeometry x="0.5" y="41" relative="1" as="geometry">
            <mxPoint x="90" y="313.73" as="sourcePoint" />
            <mxPoint x="100" y="223.73000000000002" as="targetPoint" />
            <mxPoint x="-40" y="32" as="offset" />
            <Array as="points" />
          </mxGeometry>
        </mxCell>
        <mxCell id="fjV98Jkm7xAT9p4d5GUs-34" value="0..*" style="resizable=0;align=left;verticalAlign=bottom;labelBackgroundColor=none;fontSize=12;" parent="fjV98Jkm7xAT9p4d5GUs-33" connectable="0" vertex="1">
          <mxGeometry x="-1" relative="1" as="geometry">
            <mxPoint x="-24" y="-10" as="offset" />
          </mxGeometry>
        </mxCell>
        <mxCell id="fjV98Jkm7xAT9p4d5GUs-35" value="1" style="resizable=0;align=right;verticalAlign=bottom;labelBackgroundColor=none;fontSize=12;" parent="fjV98Jkm7xAT9p4d5GUs-33" connectable="0" vertex="1">
          <mxGeometry x="1" relative="1" as="geometry">
            <mxPoint x="-10" y="28" as="offset" />
          </mxGeometry>
        </mxCell>
        <mxCell id="fjV98Jkm7xAT9p4d5GUs-36" value="pertenece-a" style="text;html=1;resizable=0;points=[];;align=center;verticalAlign=middle;labelBackgroundColor=none;rounded=0;shadow=0;strokeWidth=1;fontSize=12;" parent="fjV98Jkm7xAT9p4d5GUs-33" vertex="1" connectable="0">
          <mxGeometry x="0.5" y="49" relative="1" as="geometry">
            <mxPoint x="-11" y="-1" as="offset" />
          </mxGeometry>
        </mxCell>
        <mxCell id="fjV98Jkm7xAT9p4d5GUs-45" value="" style="endArrow=open;shadow=0;strokeWidth=1;rounded=0;endFill=1;edgeStyle=elbowEdgeStyle;elbow=vertical;entryX=0.75;entryY=0;entryDx=0;entryDy=0;startArrow=open;startFill=0;" parent="WIyWlLk6GJQsqaUBKTNV-1" source="fjV98Jkm7xAT9p4d5GUs-28" target="fjV98Jkm7xAT9p4d5GUs-6" edge="1">
          <mxGeometry x="0.5" y="41" relative="1" as="geometry">
            <mxPoint x="450" y="150.73000000000002" as="sourcePoint" />
            <mxPoint x="220.00000000000003" y="336.70399999999995" as="targetPoint" />
            <mxPoint x="-40" y="32" as="offset" />
            <Array as="points">
              <mxPoint x="280" y="280" />
              <mxPoint x="360" y="310" />
              <mxPoint x="380" y="300" />
              <mxPoint x="404.04" y="258.72" />
            </Array>
          </mxGeometry>
        </mxCell>
        <mxCell id="fjV98Jkm7xAT9p4d5GUs-46" value="0..*" style="resizable=0;align=left;verticalAlign=bottom;labelBackgroundColor=none;fontSize=12;" parent="fjV98Jkm7xAT9p4d5GUs-45" connectable="0" vertex="1">
          <mxGeometry x="-1" relative="1" as="geometry">
            <mxPoint x="-41" y="20" as="offset" />
          </mxGeometry>
        </mxCell>
        <mxCell id="fjV98Jkm7xAT9p4d5GUs-47" value="0..*" style="resizable=0;align=right;verticalAlign=bottom;labelBackgroundColor=none;fontSize=12;" parent="fjV98Jkm7xAT9p4d5GUs-45" connectable="0" vertex="1">
          <mxGeometry x="1" relative="1" as="geometry">
            <mxPoint x="-10" y="-13" as="offset" />
          </mxGeometry>
        </mxCell>
        <mxCell id="fjV98Jkm7xAT9p4d5GUs-48" value="participa-en" style="text;html=1;resizable=0;points=[];;align=center;verticalAlign=middle;labelBackgroundColor=none;rounded=0;shadow=0;strokeWidth=1;fontSize=12;" parent="fjV98Jkm7xAT9p4d5GUs-45" vertex="1" connectable="0">
          <mxGeometry x="0.5" y="49" relative="1" as="geometry">
            <mxPoint x="-29" y="-49" as="offset" />
          </mxGeometry>
        </mxCell>
        <mxCell id="fjV98Jkm7xAT9p4d5GUs-51" value="Caja" style="swimlane;fontStyle=1;align=center;verticalAlign=top;childLayout=stackLayout;horizontal=1;startSize=26;horizontalStack=0;resizeParent=1;resizeParentMax=0;resizeLast=0;collapsible=1;marginBottom=0;whiteSpace=wrap;html=1;" parent="WIyWlLk6GJQsqaUBKTNV-1" vertex="1">
          <mxGeometry x="40" y="728" width="180" height="138" as="geometry" />
        </mxCell>
        <mxCell id="fjV98Jkm7xAT9p4d5GUs-52" value="&lt;u&gt;+ id: string&lt;/u&gt;" style="text;strokeColor=none;fillColor=none;align=left;verticalAlign=top;spacingLeft=4;spacingRight=4;overflow=hidden;rotatable=0;points=[[0,0.5],[1,0.5]];portConstraint=eastwest;whiteSpace=wrap;html=1;" parent="fjV98Jkm7xAT9p4d5GUs-51" vertex="1">
          <mxGeometry y="26" width="180" height="26" as="geometry" />
        </mxCell>
        <mxCell id="fjV98Jkm7xAT9p4d5GUs-53" value="+ nombre: string" style="text;strokeColor=none;fillColor=none;align=left;verticalAlign=top;spacingLeft=4;spacingRight=4;overflow=hidden;rotatable=0;points=[[0,0.5],[1,0.5]];portConstraint=eastwest;whiteSpace=wrap;html=1;" parent="fjV98Jkm7xAT9p4d5GUs-51" vertex="1">
          <mxGeometry y="52" width="180" height="26" as="geometry" />
        </mxCell>
        <mxCell id="fjV98Jkm7xAT9p4d5GUs-54" value="" style="line;strokeWidth=1;fillColor=none;align=left;verticalAlign=middle;spacingTop=-1;spacingLeft=3;spacingRight=3;rotatable=0;labelPosition=right;points=[];portConstraint=eastwest;strokeColor=inherit;" parent="fjV98Jkm7xAT9p4d5GUs-51" vertex="1">
          <mxGeometry y="78" width="180" height="8" as="geometry" />
        </mxCell>
        <mxCell id="fjV98Jkm7xAT9p4d5GUs-55" value="+ listaObjetos(): Objeto[]" style="text;strokeColor=none;fillColor=none;align=left;verticalAlign=top;spacingLeft=4;spacingRight=4;overflow=hidden;rotatable=0;points=[[0,0.5],[1,0.5]];portConstraint=eastwest;whiteSpace=wrap;html=1;" parent="fjV98Jkm7xAT9p4d5GUs-51" vertex="1">
          <mxGeometry y="86" width="180" height="26" as="geometry" />
        </mxCell>
        <mxCell id="fjV98Jkm7xAT9p4d5GUs-71" value="+ descripcion(): string[]" style="text;strokeColor=none;fillColor=none;align=left;verticalAlign=top;spacingLeft=4;spacingRight=4;overflow=hidden;rotatable=0;points=[[0,0.5],[1,0.5]];portConstraint=eastwest;whiteSpace=wrap;html=1;" parent="fjV98Jkm7xAT9p4d5GUs-51" vertex="1">
          <mxGeometry y="112" width="180" height="26" as="geometry" />
        </mxCell>
        <mxCell id="fjV98Jkm7xAT9p4d5GUs-21" value="" style="endArrow=open;shadow=0;strokeWidth=1;rounded=0;endFill=1;edgeStyle=elbowEdgeStyle;elbow=vertical;" parent="WIyWlLk6GJQsqaUBKTNV-1" source="fjV98Jkm7xAT9p4d5GUs-11" target="fjV98Jkm7xAT9p4d5GUs-51" edge="1">
          <mxGeometry x="0.5" y="41" relative="1" as="geometry">
            <mxPoint x="370" y="738" as="sourcePoint" />
            <mxPoint x="381" y="702" as="targetPoint" />
            <mxPoint x="-40" y="32" as="offset" />
            <Array as="points" />
          </mxGeometry>
        </mxCell>
        <mxCell id="fjV98Jkm7xAT9p4d5GUs-22" value="0..*" style="resizable=0;align=left;verticalAlign=bottom;labelBackgroundColor=none;fontSize=12;" parent="fjV98Jkm7xAT9p4d5GUs-21" connectable="0" vertex="1">
          <mxGeometry x="-1" relative="1" as="geometry">
            <mxPoint x="-27" y="-7" as="offset" />
          </mxGeometry>
        </mxCell>
        <mxCell id="fjV98Jkm7xAT9p4d5GUs-23" value="1" style="resizable=0;align=right;verticalAlign=bottom;labelBackgroundColor=none;fontSize=12;" parent="fjV98Jkm7xAT9p4d5GUs-21" connectable="0" vertex="1">
          <mxGeometry x="1" relative="1" as="geometry">
            <mxPoint x="20" y="-4" as="offset" />
          </mxGeometry>
        </mxCell>
        <mxCell id="fjV98Jkm7xAT9p4d5GUs-24" value="contenido-en" style="text;html=1;resizable=0;points=[];;align=center;verticalAlign=middle;labelBackgroundColor=none;rounded=0;shadow=0;strokeWidth=1;fontSize=12;" parent="fjV98Jkm7xAT9p4d5GUs-21" vertex="1" connectable="0">
          <mxGeometry x="0.5" y="49" relative="1" as="geometry">
            <mxPoint x="41" y="-62" as="offset" />
          </mxGeometry>
        </mxCell>
        <mxCell id="fjV98Jkm7xAT9p4d5GUs-57" style="edgeStyle=orthogonalEdgeStyle;rounded=0;orthogonalLoop=1;jettySize=auto;html=1;exitX=0.5;exitY=0;exitDx=0;exitDy=0;endArrow=open;endFill=0;" parent="WIyWlLk6GJQsqaUBKTNV-1" target="fjV98Jkm7xAT9p4d5GUs-6" edge="1">
          <mxGeometry relative="1" as="geometry">
            <mxPoint x="515" y="728" as="sourcePoint" />
            <mxPoint x="290" y="530" as="targetPoint" />
            <Array as="points">
              <mxPoint x="460" y="728" />
              <mxPoint x="460" y="530" />
            </Array>
          </mxGeometry>
        </mxCell>
        <mxCell id="fjV98Jkm7xAT9p4d5GUs-63" value="1" style="edgeLabel;html=1;align=center;verticalAlign=middle;resizable=0;points=[];" parent="fjV98Jkm7xAT9p4d5GUs-57" vertex="1" connectable="0">
          <mxGeometry x="0.9077" relative="1" as="geometry">
            <mxPoint x="-1" y="-11" as="offset" />
          </mxGeometry>
        </mxCell>
        <mxCell id="fjV98Jkm7xAT9p4d5GUs-64" value="0..*" style="edgeLabel;html=1;align=center;verticalAlign=middle;resizable=0;points=[];" parent="fjV98Jkm7xAT9p4d5GUs-57" vertex="1" connectable="0">
          <mxGeometry x="-0.9355" y="-2" relative="1" as="geometry">
            <mxPoint x="-61" y="-18" as="offset" />
          </mxGeometry>
        </mxCell>
        <mxCell id="fjV98Jkm7xAT9p4d5GUs-68" value="pertenece-a" style="edgeLabel;html=1;align=center;verticalAlign=middle;resizable=0;points=[];" parent="fjV98Jkm7xAT9p4d5GUs-57" vertex="1" connectable="0">
          <mxGeometry x="-0.0508" relative="1" as="geometry">
            <mxPoint x="-50" y="-62" as="offset" />
          </mxGeometry>
        </mxCell>
        <mxCell id="fjV98Jkm7xAT9p4d5GUs-56" style="edgeStyle=elbowEdgeStyle;rounded=0;orthogonalLoop=1;jettySize=auto;html=1;exitX=0.461;exitY=-0.036;exitDx=0;exitDy=0;elbow=vertical;endArrow=open;endFill=0;exitPerimeter=0;" parent="WIyWlLk6GJQsqaUBKTNV-1" source="fjV98Jkm7xAT9p4d5GUs-51" target="fjV98Jkm7xAT9p4d5GUs-6" edge="1">
          <mxGeometry relative="1" as="geometry">
            <mxPoint x="120" y="560" as="targetPoint" />
            <Array as="points">
              <mxPoint x="123" y="588" />
            </Array>
          </mxGeometry>
        </mxCell>
        <mxCell id="fjV98Jkm7xAT9p4d5GUs-58" value="0..*" style="edgeLabel;html=1;align=center;verticalAlign=middle;resizable=0;points=[];" parent="fjV98Jkm7xAT9p4d5GUs-56" vertex="1" connectable="0">
          <mxGeometry x="-0.55" y="-4" relative="1" as="geometry">
            <mxPoint x="16" as="offset" />
          </mxGeometry>
        </mxCell>
        <mxCell id="fjV98Jkm7xAT9p4d5GUs-59" value="1" style="edgeLabel;html=1;align=center;verticalAlign=middle;resizable=0;points=[];" parent="fjV98Jkm7xAT9p4d5GUs-56" vertex="1" connectable="0">
          <mxGeometry x="0.675" y="-1" relative="1" as="geometry">
            <mxPoint x="9" as="offset" />
          </mxGeometry>
        </mxCell>
        <mxCell id="fjV98Jkm7xAT9p4d5GUs-69" value="pertenece-a" style="edgeLabel;html=1;align=center;verticalAlign=middle;resizable=0;points=[];" parent="fjV98Jkm7xAT9p4d5GUs-56" vertex="1" connectable="0">
          <mxGeometry x="-0.025" y="-1" relative="1" as="geometry">
            <mxPoint x="39" y="-3" as="offset" />
          </mxGeometry>
        </mxCell>
        <mxCell id="fjV98Jkm7xAT9p4d5GUs-74" value="Etiqueta" style="swimlane;fontStyle=1;align=center;verticalAlign=top;childLayout=stackLayout;horizontal=1;startSize=26;horizontalStack=0;resizeParent=1;resizeParentMax=0;resizeLast=0;collapsible=1;marginBottom=0;whiteSpace=wrap;html=1;" parent="WIyWlLk6GJQsqaUBKTNV-1" vertex="1">
          <mxGeometry x="630" y="380" width="160" height="60" as="geometry" />
        </mxCell>
        <mxCell id="fjV98Jkm7xAT9p4d5GUs-78" value="&lt;u&gt;+ nombre: string&lt;/u&gt;" style="text;strokeColor=none;fillColor=none;align=left;verticalAlign=top;spacingLeft=4;spacingRight=4;overflow=hidden;rotatable=0;points=[[0,0.5],[1,0.5]];portConstraint=eastwest;whiteSpace=wrap;html=1;" parent="fjV98Jkm7xAT9p4d5GUs-74" vertex="1">
          <mxGeometry y="26" width="160" height="26" as="geometry" />
        </mxCell>
        <mxCell id="fjV98Jkm7xAT9p4d5GUs-76" value="" style="line;strokeWidth=1;fillColor=none;align=left;verticalAlign=middle;spacingTop=-1;spacingLeft=3;spacingRight=3;rotatable=0;labelPosition=right;points=[];portConstraint=eastwest;strokeColor=inherit;" parent="fjV98Jkm7xAT9p4d5GUs-74" vertex="1">
          <mxGeometry y="52" width="160" height="8" as="geometry" />
        </mxCell>
        <mxCell id="fjV98Jkm7xAT9p4d5GUs-79" style="edgeStyle=orthogonalEdgeStyle;rounded=0;orthogonalLoop=1;jettySize=auto;html=1;endArrow=open;endFill=0;" parent="WIyWlLk6GJQsqaUBKTNV-1" source="fjV98Jkm7xAT9p4d5GUs-74" target="fjV98Jkm7xAT9p4d5GUs-6" edge="1">
          <mxGeometry relative="1" as="geometry">
            <mxPoint x="710" y="281.78999999999996" as="sourcePoint" />
            <mxPoint x="260" y="313.73199999999997" as="targetPoint" />
            <Array as="points">
              <mxPoint x="600" y="400" />
              <mxPoint x="600" y="400" />
            </Array>
          </mxGeometry>
        </mxCell>
        <mxCell id="fjV98Jkm7xAT9p4d5GUs-80" value="pertenece-a" style="edgeLabel;html=1;align=center;verticalAlign=middle;resizable=0;points=[];" parent="fjV98Jkm7xAT9p4d5GUs-79" vertex="1" connectable="0">
          <mxGeometry x="-0.1415" relative="1" as="geometry">
            <mxPoint y="-10" as="offset" />
          </mxGeometry>
        </mxCell>
        <mxCell id="fjV98Jkm7xAT9p4d5GUs-81" value="1" style="edgeLabel;html=1;align=center;verticalAlign=middle;resizable=0;points=[];" parent="fjV98Jkm7xAT9p4d5GUs-79" vertex="1" connectable="0">
          <mxGeometry x="0.878" relative="1" as="geometry">
            <mxPoint x="-5" y="-10" as="offset" />
          </mxGeometry>
        </mxCell>
        <mxCell id="fjV98Jkm7xAT9p4d5GUs-82" value="0..*" style="edgeLabel;html=1;align=center;verticalAlign=middle;resizable=0;points=[];" parent="fjV98Jkm7xAT9p4d5GUs-79" vertex="1" connectable="0">
          <mxGeometry x="-0.9317" y="2" relative="1" as="geometry">
            <mxPoint y="-12" as="offset" />
          </mxGeometry>
        </mxCell>
        <mxCell id="fjV98Jkm7xAT9p4d5GUs-88" style="edgeStyle=orthogonalEdgeStyle;rounded=0;orthogonalLoop=1;jettySize=auto;html=1;endArrow=open;endFill=0;startArrow=open;startFill=0;" parent="WIyWlLk6GJQsqaUBKTNV-1" source="fjV98Jkm7xAT9p4d5GUs-74" target="fjV98Jkm7xAT9p4d5GUs-11" edge="1">
          <mxGeometry relative="1" as="geometry">
            <mxPoint x="630" y="1068.5" as="sourcePoint" />
            <Array as="points">
              <mxPoint x="710" y="849" />
            </Array>
          </mxGeometry>
        </mxCell>
        <mxCell id="fjV98Jkm7xAT9p4d5GUs-93" value="clasificado-en" style="edgeLabel;html=1;align=center;verticalAlign=middle;resizable=0;points=[];" parent="fjV98Jkm7xAT9p4d5GUs-88" vertex="1" connectable="0">
          <mxGeometry x="0.0986" y="2" relative="1" as="geometry">
            <mxPoint y="161" as="offset" />
          </mxGeometry>
        </mxCell>
        <mxCell id="fjV98Jkm7xAT9p4d5GUs-94" value="0..*" style="edgeLabel;html=1;align=center;verticalAlign=middle;resizable=0;points=[];" parent="fjV98Jkm7xAT9p4d5GUs-88" vertex="1" connectable="0">
          <mxGeometry x="-0.7133" y="2" relative="1" as="geometry">
            <mxPoint x="18" y="-40" as="offset" />
          </mxGeometry>
        </mxCell>
        <mxCell id="fjV98Jkm7xAT9p4d5GUs-95" value="0..*" style="edgeLabel;html=1;align=center;verticalAlign=middle;resizable=0;points=[];" parent="fjV98Jkm7xAT9p4d5GUs-88" vertex="1" connectable="0">
          <mxGeometry x="0.7816" y="2" relative="1" as="geometry">
            <mxPoint x="-23" y="-21" as="offset" />
          </mxGeometry>
        </mxCell>
        <mxCell id="Adfxd0lngenPJyRESjp3-0" value="Diagrama de clases genÃ©rico.&lt;br&gt;&lt;br&gt;Permite extraer ER/JSON/ORM" style="shape=note;whiteSpace=wrap;html=1;backgroundOutline=1;darkOpacity=0.05;" parent="WIyWlLk6GJQsqaUBKTNV-1" vertex="1">
          <mxGeometry x="600" y="20" width="180" height="140" as="geometry" />
        </mxCell>
        <mxCell id="Adfxd0lngenPJyRESjp3-3" value="Diferentes campos segÃºn el tipo de objeto, que se deja como mejora" style="shape=note;whiteSpace=wrap;html=1;backgroundOutline=1;darkOpacity=0.05;" parent="WIyWlLk6GJQsqaUBKTNV-1" vertex="1">
          <mxGeometry x="40" y="910" width="100" height="160" as="geometry" />
        </mxCell>
        <mxCell id="PhYve7KCw_pkfZqsMKJ3-0" value="TipoObjeto" style="swimlane;fontStyle=1;align=center;verticalAlign=top;childLayout=stackLayout;horizontal=1;startSize=26;horizontalStack=0;resizeParent=1;resizeParentMax=0;resizeLast=0;collapsible=1;marginBottom=0;whiteSpace=wrap;html=1;" parent="WIyWlLk6GJQsqaUBKTNV-1" vertex="1">
          <mxGeometry x="500" y="460" width="160" height="86" as="geometry" />
        </mxCell>
        <mxCell id="PhYve7KCw_pkfZqsMKJ3-1" value="&lt;u&gt;+ nombre: string&lt;/u&gt;" style="text;strokeColor=none;fillColor=none;align=left;verticalAlign=top;spacingLeft=4;spacingRight=4;overflow=hidden;rotatable=0;points=[[0,0.5],[1,0.5]];portConstraint=eastwest;whiteSpace=wrap;html=1;" parent="PhYve7KCw_pkfZqsMKJ3-0" vertex="1">
          <mxGeometry y="26" width="160" height="26" as="geometry" />
        </mxCell>
        <mxCell id="PhYve7KCw_pkfZqsMKJ3-2" value="" style="line;strokeWidth=1;fillColor=none;align=left;verticalAlign=middle;spacingTop=-1;spacingLeft=3;spacingRight=3;rotatable=0;labelPosition=right;points=[];portConstraint=eastwest;strokeColor=inherit;" parent="PhYve7KCw_pkfZqsMKJ3-0" vertex="1">
          <mxGeometry y="52" width="160" height="8" as="geometry" />
        </mxCell>
        <mxCell id="PhYve7KCw_pkfZqsMKJ3-3" value="+ method(type): type" style="text;strokeColor=none;fillColor=none;align=left;verticalAlign=top;spacingLeft=4;spacingRight=4;overflow=hidden;rotatable=0;points=[[0,0.5],[1,0.5]];portConstraint=eastwest;whiteSpace=wrap;html=1;" parent="PhYve7KCw_pkfZqsMKJ3-0" vertex="1">
          <mxGeometry y="60" width="160" height="26" as="geometry" />
        </mxCell>
        <mxCell id="PhYve7KCw_pkfZqsMKJ3-6" style="edgeStyle=orthogonalEdgeStyle;rounded=0;orthogonalLoop=1;jettySize=auto;html=1;endArrow=open;endFill=0;" parent="WIyWlLk6GJQsqaUBKTNV-1" source="PhYve7KCw_pkfZqsMKJ3-1" target="fjV98Jkm7xAT9p4d5GUs-6" edge="1">
          <mxGeometry relative="1" as="geometry">
            <Array as="points">
              <mxPoint x="420" y="490" />
              <mxPoint x="420" y="490" />
            </Array>
          </mxGeometry>
        </mxCell>
        <mxCell id="PhYve7KCw_pkfZqsMKJ3-7" value="pertenece-a" style="edgeLabel;html=1;align=center;verticalAlign=middle;resizable=0;points=[];" parent="PhYve7KCw_pkfZqsMKJ3-6" vertex="1" connectable="0">
          <mxGeometry x="-0.0455" y="2" relative="1" as="geometry">
            <mxPoint x="15" y="-12" as="offset" />
          </mxGeometry>
        </mxCell>
        <mxCell id="PhYve7KCw_pkfZqsMKJ3-8" value="1" style="edgeLabel;html=1;align=center;verticalAlign=middle;resizable=0;points=[];" parent="PhYve7KCw_pkfZqsMKJ3-6" vertex="1" connectable="0">
          <mxGeometry x="0.8364" y="2" relative="1" as="geometry">
            <mxPoint y="-22" as="offset" />
          </mxGeometry>
        </mxCell>
        <mxCell id="PhYve7KCw_pkfZqsMKJ3-9" value="0..*" style="edgeLabel;html=1;align=center;verticalAlign=middle;resizable=0;points=[];" parent="PhYve7KCw_pkfZqsMKJ3-6" vertex="1" connectable="0">
          <mxGeometry x="-0.8727" y="-1" relative="1" as="geometry">
            <mxPoint x="-6" y="-19" as="offset" />
          </mxGeometry>
        </mxCell>
        <mxCell id="PhYve7KCw_pkfZqsMKJ3-19" style="edgeStyle=orthogonalEdgeStyle;rounded=0;orthogonalLoop=1;jettySize=auto;html=1;endArrow=none;endFill=0;startArrow=open;startFill=0;" parent="WIyWlLk6GJQsqaUBKTNV-1" source="PhYve7KCw_pkfZqsMKJ3-15" target="fjV98Jkm7xAT9p4d5GUs-51" edge="1">
          <mxGeometry relative="1" as="geometry">
            <Array as="points">
              <mxPoint x="320" y="760" />
            </Array>
          </mxGeometry>
        </mxCell>
        <mxCell id="PhYve7KCw_pkfZqsMKJ3-20" value="0..*" style="edgeLabel;html=1;align=center;verticalAlign=middle;resizable=0;points=[];" parent="PhYve7KCw_pkfZqsMKJ3-19" vertex="1" connectable="0">
          <mxGeometry x="0.6296" y="1" relative="1" as="geometry">
            <mxPoint x="-71" y="27" as="offset" />
          </mxGeometry>
        </mxCell>
        <mxCell id="PhYve7KCw_pkfZqsMKJ3-21" value="1" style="edgeLabel;html=1;align=center;verticalAlign=middle;resizable=0;points=[];" parent="PhYve7KCw_pkfZqsMKJ3-19" vertex="1" connectable="0">
          <mxGeometry x="-0.8095" y="-2" relative="1" as="geometry">
            <mxPoint x="49" y="-9" as="offset" />
          </mxGeometry>
        </mxCell>
        <mxCell id="PhYve7KCw_pkfZqsMKJ3-28" value="localizada-en" style="edgeLabel;html=1;align=center;verticalAlign=middle;resizable=0;points=[];" parent="PhYve7KCw_pkfZqsMKJ3-19" vertex="1" connectable="0">
          <mxGeometry x="0.2689" relative="1" as="geometry">
            <mxPoint x="-50" y="141" as="offset" />
          </mxGeometry>
        </mxCell>
        <mxCell id="PhYve7KCw_pkfZqsMKJ3-15" value="Locales" style="swimlane;fontStyle=1;align=center;verticalAlign=top;childLayout=stackLayout;horizontal=1;startSize=26;horizontalStack=0;resizeParent=1;resizeParentMax=0;resizeLast=0;collapsible=1;marginBottom=0;whiteSpace=wrap;html=1;" parent="WIyWlLk6GJQsqaUBKTNV-1" vertex="1">
          <mxGeometry x="490" y="200" width="200" height="164" as="geometry" />
        </mxCell>
        <mxCell id="PhYve7KCw_pkfZqsMKJ3-30" value="&lt;u&gt;+ id: string&lt;/u&gt;" style="text;strokeColor=none;fillColor=none;align=left;verticalAlign=top;spacingLeft=4;spacingRight=4;overflow=hidden;rotatable=0;points=[[0,0.5],[1,0.5]];portConstraint=eastwest;whiteSpace=wrap;html=1;" parent="PhYve7KCw_pkfZqsMKJ3-15" vertex="1">
          <mxGeometry y="26" width="200" height="26" as="geometry" />
        </mxCell>
        <mxCell id="PhYve7KCw_pkfZqsMKJ3-16" value="+ nombre: string" style="text;strokeColor=none;fillColor=none;align=left;verticalAlign=top;spacingLeft=4;spacingRight=4;overflow=hidden;rotatable=0;points=[[0,0.5],[1,0.5]];portConstraint=eastwest;whiteSpace=wrap;html=1;" parent="PhYve7KCw_pkfZqsMKJ3-15" vertex="1">
          <mxGeometry y="52" width="200" height="26" as="geometry" />
        </mxCell>
        <mxCell id="PhYve7KCw_pkfZqsMKJ3-22" value="+ direcciÃ³n: string" style="text;strokeColor=none;fillColor=none;align=left;verticalAlign=top;spacingLeft=4;spacingRight=4;overflow=hidden;rotatable=0;points=[[0,0.5],[1,0.5]];portConstraint=eastwest;whiteSpace=wrap;html=1;" parent="PhYve7KCw_pkfZqsMKJ3-15" vertex="1">
          <mxGeometry y="78" width="200" height="26" as="geometry" />
        </mxCell>
        <mxCell id="PhYve7KCw_pkfZqsMKJ3-29" value="+ gps: { lat:number, long:number }" style="text;strokeColor=none;fillColor=none;align=left;verticalAlign=top;spacingLeft=4;spacingRight=4;overflow=hidden;rotatable=0;points=[[0,0.5],[1,0.5]];portConstraint=eastwest;whiteSpace=wrap;html=1;" parent="PhYve7KCw_pkfZqsMKJ3-15" vertex="1">
          <mxGeometry y="104" width="200" height="26" as="geometry" />
        </mxCell>
        <mxCell id="PhYve7KCw_pkfZqsMKJ3-17" value="" style="line;strokeWidth=1;fillColor=none;align=left;verticalAlign=middle;spacingTop=-1;spacingLeft=3;spacingRight=3;rotatable=0;labelPosition=right;points=[];portConstraint=eastwest;strokeColor=inherit;" parent="PhYve7KCw_pkfZqsMKJ3-15" vertex="1">
          <mxGeometry y="130" width="200" height="8" as="geometry" />
        </mxCell>
        <mxCell id="PhYve7KCw_pkfZqsMKJ3-18" value="+ geoposicionar(): void" style="text;strokeColor=none;fillColor=none;align=left;verticalAlign=top;spacingLeft=4;spacingRight=4;overflow=hidden;rotatable=0;points=[[0,0.5],[1,0.5]];portConstraint=eastwest;whiteSpace=wrap;html=1;" parent="PhYve7KCw_pkfZqsMKJ3-15" vertex="1">
          <mxGeometry y="138" width="200" height="26" as="geometry" />
        </mxCell>
        <mxCell id="J__XPvWuGs8pQmFZ8I8G-0" style="edgeStyle=orthogonalEdgeStyle;rounded=0;orthogonalLoop=1;jettySize=auto;html=1;dashed=1;dashPattern=1 1;endArrow=none;endFill=0;" edge="1" parent="WIyWlLk6GJQsqaUBKTNV-1" source="PhYve7KCw_pkfZqsMKJ3-23">
          <mxGeometry relative="1" as="geometry">
            <mxPoint x="260" y="760" as="targetPoint" />
          </mxGeometry>
        </mxCell>
        <mxCell id="PhYve7KCw_pkfZqsMKJ3-23" value="Observar:&lt;br&gt;&lt;br&gt;Deben definirse locales para definir cajas. AsÃ­ todas las cajas estÃ¡n localizadas." style="shape=note;whiteSpace=wrap;html=1;backgroundOutline=1;darkOpacity=0.05;" parent="WIyWlLk6GJQsqaUBKTNV-1" vertex="1">
          <mxGeometry x="160" y="910" width="170" height="100" as="geometry" />
        </mxCell>
        <mxCell id="PhYve7KCw_pkfZqsMKJ3-33" value="{ receptor definido&lt;br&gt;si solo si prestado }" style="shape=note;whiteSpace=wrap;html=1;backgroundOutline=1;darkOpacity=0.05;" parent="WIyWlLk6GJQsqaUBKTNV-1" vertex="1">
          <mxGeometry x="240" y="1040" width="180" height="90" as="geometry" />
        </mxCell>
        <mxCell id="PhYve7KCw_pkfZqsMKJ3-34" value="" style="endArrow=none;dashed=1;html=1;dashPattern=1 3;strokeWidth=2;rounded=0;exitX=0;exitY=0.5;exitDx=0;exitDy=0;" parent="WIyWlLk6GJQsqaUBKTNV-1" source="PhYve7KCw_pkfZqsMKJ3-31" target="PhYve7KCw_pkfZqsMKJ3-33" edge="1">
          <mxGeometry width="50" height="50" relative="1" as="geometry">
            <mxPoint x="390" y="840" as="sourcePoint" />
            <mxPoint x="440" y="790" as="targetPoint" />
          </mxGeometry>
        </mxCell>
        <mxCell id="J__XPvWuGs8pQmFZ8I8G-2" style="edgeStyle=orthogonalEdgeStyle;rounded=0;orthogonalLoop=1;jettySize=auto;html=1;endArrow=none;endFill=0;dashed=1;dashPattern=1 1;" edge="1" parent="WIyWlLk6GJQsqaUBKTNV-1" source="J__XPvWuGs8pQmFZ8I8G-1">
          <mxGeometry relative="1" as="geometry">
            <mxPoint x="350" y="800" as="targetPoint" />
            <Array as="points">
              <mxPoint x="350" y="745" />
              <mxPoint x="351" y="745" />
            </Array>
          </mxGeometry>
        </mxCell>
        <mxCell id="J__XPvWuGs8pQmFZ8I8G-3" value="&lt;b&gt;REVISAR&lt;/b&gt;" style="edgeLabel;html=1;align=center;verticalAlign=middle;resizable=0;points=[];" vertex="1" connectable="0" parent="J__XPvWuGs8pQmFZ8I8G-2">
          <mxGeometry x="-0.3334" y="-1" relative="1" as="geometry">
            <mxPoint as="offset" />
          </mxGeometry>
        </mxCell>
        <mxCell id="J__XPvWuGs8pQmFZ8I8G-1" value="[si prestado() no puede estar en una caja]" style="shape=note;whiteSpace=wrap;html=1;backgroundOutline=1;darkOpacity=0.05;" vertex="1" parent="WIyWlLk6GJQsqaUBKTNV-1">
          <mxGeometry x="340" y="580" width="90" height="110" as="geometry" />
        </mxCell>
      </root>
    </mxGraphModel>
  </diagram>
</mxfile>
